<?xml version="1.0" standalone="no"?><!DOCTYPE svg PUBLIC "-//W3C//DTD SVG 1.1//EN" "http://www.w3.org/Graphics/SVG/1.1/DTD/svg11.dtd"><svg t="1589452833716" class="icon" viewBox="0 0 1024 1024" version="1.1" xmlns="http://www.w3.org/2000/svg" p-id="2090" width="32" height="32" xmlns:xlink="http://www.w3.org/1999/xlink"><defs><style type="text/css"></style></defs><path d="M512 1016.242424c-68.062384 0-134.097455-13.33398-196.269253-39.633455-60.046222-25.399596-113.970424-61.756768-160.276687-108.06303-46.306263-46.30497-82.663434-100.229172-108.06303-160.275394C21.091556 646.097455 7.757576 580.062384 7.757576 512c0-68.07402 13.33398-134.115556 39.633455-196.292525 25.398303-60.046222 61.756768-113.970424 108.06303-160.274101 46.30497-46.301091 100.229172-82.654384 160.276687-108.050101C377.902545 21.090263 443.936323 7.757576 512 7.757576c68.070141 0 134.110384 13.332687 196.282182 39.625697 60.047515 25.394424 113.970424 61.74901 160.275394 108.050101 46.303677 46.302384 82.660848 100.226586 108.056566 160.274101C1002.909737 377.883152 1016.242424 443.92598 1016.242424 512c0 68.063677-13.33398 134.097455-39.628283 196.269253-25.39701 60.046222-61.752889 113.971717-108.056566 160.276687-46.303677 46.306263-100.227879 82.66602-160.274101 108.06303C646.109091 1002.908444 580.068848 1016.242424 512 1016.242424zM512 32.969697C247.862303 32.969697 32.969697 247.862303 32.969697 512c0 264.137697 214.892606 479.030303 479.030303 479.030303 264.137697 0 479.030303-214.892606 479.030303-479.030303C991.030303 247.862303 776.137697 32.969697 512 32.969697z" p-id="2091" fill="#d4237a"></path><path d="M439.297293 764.838788l-30.276525 0c-30.62303-3.09398-72.878545-5.248-85.966869-26.605899-4.525253-7.417535-4.25503-23.822222 0.41503-32.131879 6.940444-12.280242 22.728404-15.696162 41.055677-18.21996-18.058343-14.280404-34.808242-29.883475-44.494869-52.812283-1.554101-3.692606-3.300848-7.571394-4.747636-11.448889-1.499798-3.907232-2.06998-8.03297-4.354586-11.818667-3.961535 3.139232-5.238949 8.956121-7.770505 13.526626-5.21697 6.124606-13.480081 16.48097-22.436202 20.697212-3.123717 1.538586-8.656162 3.770182-12.125091 2.985374-6.763313-1.537293-8.140283-16.280566-9.472-24.96l0-21.527273c7.032242-55.513212 36.477414-89.143596 72.11701-116.712727-5.632-15.12598 1.084768-32.199111 8.216566-41.425455-0.268929-8.878545 3.024162-21.127758 8.656162-27.028687 0.492606-29.344323 8.856566-53.127758 21.158788-72.294141 22.182788-34.654384 47.419475-62.822141 90.321455-76.540121 42.794667-13.680485 103.893333-12.449616 143.394909 4.253737 21.144566 8.856566 37.93196 18.005333 51.890424 31.676768 21.881535 21.405737 34.654384 46.788525 43.640242 81.172687 1.446788 5.532444 2.663434 11.341576 3.431434 17.343354 0.72404 5.554424 0.877899 12.101818 2.601374 17.780364 2.169535 6.98699 9.155232 13.380525 12.079838 21.944889 5.001051 14.41099 5.678545 29.807192-1.277414 42.693818 13.449051 18.989253 25.699556 39.75499 37.577697 66.369939 9.633616 21.573818 17.711838 61.414141 6.493091 86.697374-2.722909 6.185374-9.324606 14.679919-15.972848 14.77301-7.664485 0.138343-12.988768-8.587636-16.835232-14.342465-4.58602-6.74004-8.340687-13.141333-11.695838-19.912404-6.385778 7.910141-8.771232 18.574222-13.372768 28.346182-6.540929 13.725737-16.019394 25.760323-26.38998 35.947313 11.386828 6.247434 24.220444 11.770828 34.561293 19.851636 6.586182 5.170424 15.419475 12.432808 13.017212 24.559192-1.383434 6.540929-7.33996 13.079273-12.125091 16.449939-32.315475 22.882263-108.578909 19.960242-151.236525 5.955232-4.077899-1.384727-8.332929-2.492768-12.541414-3.847758-3.885253-1.246384-7.994182-3.662869-11.657051-4.185212-3.053899-0.522343-7.779556-0.214626-11.663515-0.430545-4.25503-0.307717-9.271596-1.168808-11.240727-0.862384-2.138505 0.338747-5.162667 3.201293-7.771798 4.648081C486.255192 755.744323 465.912242 764.022949 439.297293 764.838788" p-id="2092" fill="#d4237a"></path></svg>