<?xml version="1.0" standalone="no"?><!DOCTYPE svg PUBLIC "-//W3C//DTD SVG 1.1//EN" "http://www.w3.org/Graphics/SVG/1.1/DTD/svg11.dtd"><svg t="1589453118885" class="icon" viewBox="0 0 1024 1024" version="1.1" xmlns="http://www.w3.org/2000/svg" p-id="8665" xmlns:xlink="http://www.w3.org/1999/xlink" width="32" height="32"><defs><style type="text/css"></style></defs><path d="M317.439887 385.682514a34.121131 34.121131 0 1 0 34.12113-34.121131 36.571416 36.571416 0 0 0-34.12113 34.121131z m0 0" fill="#1afa29" p-id="8666"></path><path d="M467.63869 385.719085a27.026276 27.026276 0 0 0 17.078851 27.318847 31.01256 31.01256 0 0 0 34.121131 0 34.815988 34.815988 0 0 0 17.078851-27.318847 27.026276 27.026276 0 0 0-17.078851-27.318847 31.01256 31.01256 0 0 0-34.121131 0 27.026276 27.026276 0 0 0-17.078851 27.318847z m0 0" fill="#1afa29" p-id="8667"></path><path d="M552.959803 535.881317a23.881134 23.881134 0 1 0 23.881134-23.881134 23.332563 23.332563 0 0 0-23.881134 23.881134z m0 0" fill="#1afa29" p-id="8668"></path><path d="M669.000904 535.881317a24.319991 24.319991 0 0 0 10.239996 20.479993 29.257132 29.257132 0 0 0 23.881135 0 20.626278 20.626278 0 0 0 10.239996-20.479993 24.319991 24.319991 0 0 0-10.239996-20.479993 29.257132 29.257132 0 0 0-23.881135 0 38.911986 38.911986 0 0 0-10.239996 20.479993z m0 0" fill="#1afa29" p-id="8669"></path><path d="M511.999817 0.000366a511.999817 511.999817 0 1 0 511.999817 511.999817A511.30496 511.30496 0 0 0 511.999817 0.000366z m-88.758825 631.478631a566.85694 566.85694 0 0 1-75.081116-10.239996l-75.081116 34.121131 20.479992-64.84112a172.06851 172.06851 0 0 1-85.321112-143.359949c0-102.399963 95.561109-180.918793 215.039923-180.918792 105.801105 0 197.961072 64.84112 215.039923 150.198803h-20.479992a168.045654 168.045654 0 0 0-174.079938 215.039923c-6.838855-3.401142-13.641138 0-20.479993 0z m314.038745 75.081116l17.078851 54.601124-58.038837-34.121131a214.345066 214.345066 0 0 1-64.841119 10.239996c-102.399963 0-180.918793-68.278833-180.918793-153.599945s78.518829-153.599945 180.918793-153.599945c95.561109 0 180.918793 68.278833 180.918792 153.599945a161.609085 161.609085 0 0 1-75.081116 122.879956z m0 0" fill="#1afa29" p-id="8670"></path></svg>